<svg version="1.1" x="0px" y="0px" 
width="183.576px" 
height="167.671px" 
viewBox="0 0 183.576 167.671" 
enable-background="new 0 0 183.576 167.671" 
xml:space="preserve" 
xmlns="http://www.w3.org/2000/svg" 
xmlns:xlink="http://www.w3.org/1999/xlink" 
xmlns:xml="http://www.w3.org/XML/1998/namespace" 
style="transform: rotate(0deg) scale(1, 1); opacity: 1; position: absolute; backface-visibility: hidden; width: 184.8px; height: 168.73px; overflow: visible;">
<defs class="defs">
	<linearGradient id="linearGradient8c7d53501fef43df68edc3565a951341" class="linearGradient1" 
		gradientTransform="translate(0.5,0.5) rotate(0) translate(-0.5,-0.5)" x1="50%" y1="0%" x2="50%" y2="100%">
		<stop id="stop1" offset="0%" class="linearGradientColor1" stop-color="#00a6bf"></stop>
		<stop id="stop2" offset="100%" class="linearGradientColor2" stop-color="#0080c9"></stop>
	</linearGradient>
</defs>
  <path fill="url(#linearGradient8c7d53501fef43df68edc3565a951341)" d="M183.576,75.102l-34.998,92.569H74.24H59.663H51.49l-3.549-8.738c0.002-0.004,0.004-0.007,0.006-0.011
	l-28.479-70.03H0V75.688h29.159l32.034,78.355h77.433l5.72-15.329H75.234v-12.208H148.9l5.162-13.84H89.146v-12.209h69.471
	l4.978-13.342h-65.08V74.906h78.073v0.203L183.576,75.102z M97.918,15.102l78.365,49.795l6.852-10.783L153.449,35.25V1.519h-12.208
	v25.975L97.973,0L7.401,56.644l6.773,10.832L97.918,15.102z" class="color c1"></path>
</svg>