<?xml version="1.0" encoding="UTF-8" standalone="no"?>
<!DOCTYPE svg PUBLIC "-//W3C//DTD SVG 1.1//EN"
 "http://www.w3.org/Graphics/SVG/1.1/DTD/svg11.dtd">
<!-- Generated by graphviz version 5.0.0 (20220707.1540)
 -->
<!-- Title: dependencies Pages: 1 -->
<svg width="4145pt" height="247pt"
 viewBox="0.00 0.00 4145.00 246.80" xmlns="http://www.w3.org/2000/svg" xmlns:xlink="http://www.w3.org/1999/xlink">
<g id="graph0" class="graph" transform="scale(1 1) rotate(0) translate(4 242.8)">
<title>dependencies</title>
<polygon fill="white" stroke="transparent" points="-4,4 -4,-242.8 4141,-242.8 4141,4 -4,4"/>
<text text-anchor="middle" x="2068.5" y="-8.2" font-family="sans-serif" font-size="14.00">dependencies</text>
<g id="clust1" class="cluster">
<title>cluster_AppModule</title>
<polygon fill="none" stroke="black" stroke-dasharray="1,5" points="8,-32.8 8,-230.8 4129,-230.8 4129,-32.8 8,-32.8"/>
</g>
<g id="clust24" class="cluster">
<title>cluster_AppModule_providers</title>
<polygon fill="none" stroke="black" points="3136,-40.8 3136,-92.8 4121,-92.8 4121,-40.8 3136,-40.8"/>
</g>
<g id="clust21" class="cluster">
<title>cluster_AppModule_imports</title>
<polygon fill="none" stroke="black" points="2984,-40.8 2984,-92.8 3128,-92.8 3128,-40.8 2984,-40.8"/>
</g>
<g id="clust23" class="cluster">
<title>cluster_AppModule_bootstrap</title>
<polygon fill="none" stroke="black" points="2108,-170.8 2108,-222.8 2232,-222.8 2232,-170.8 2108,-170.8"/>
</g>
<g id="clust2" class="cluster">
<title>cluster_AppModule_declarations</title>
<polygon fill="none" stroke="black" points="16,-40.8 16,-92.8 2976,-92.8 2976,-40.8 16,-40.8"/>
</g>
<!-- AddExpenseComponent -->
<g id="node1" class="node">
<title>AddExpenseComponent</title>
<polygon fill="#ffffb3" stroke="black" points="2968.37,-84.8 2815.63,-84.8 2815.63,-48.8 2968.37,-48.8 2968.37,-84.8"/>
<text text-anchor="middle" x="2892" y="-62.6" font-family="Times,serif" font-size="14.00">AddExpenseComponent</text>
</g>
<!-- AppModule -->
<g id="node19" class="node">
<title>AppModule</title>
<polygon fill="#8dd3c7" stroke="black" points="2211.66,-149.8 2208.66,-153.8 2187.66,-153.8 2184.66,-149.8 2128.34,-149.8 2128.34,-113.8 2211.66,-113.8 2211.66,-149.8"/>
<text text-anchor="middle" x="2170" y="-127.6" font-family="Times,serif" font-size="14.00">AppModule</text>
</g>
<!-- AddExpenseComponent&#45;&gt;AppModule -->
<g id="edge1" class="edge">
<title>AddExpenseComponent&#45;&gt;AppModule</title>
<path fill="none" stroke="black" d="M2892,-85.1C2892,-103.07 2892,-127.8 2892,-127.8 2892,-127.8 2221.67,-127.8 2221.67,-127.8"/>
<polygon fill="black" stroke="black" points="2221.67,-124.3 2211.67,-127.8 2221.67,-131.3 2221.67,-124.3"/>
</g>
<!-- AlertComponent -->
<g id="node2" class="node">
<title>AlertComponent</title>
<polygon fill="#ffffb3" stroke="black" points="2798.1,-84.8 2687.9,-84.8 2687.9,-48.8 2798.1,-48.8 2798.1,-84.8"/>
<text text-anchor="middle" x="2743" y="-62.6" font-family="Times,serif" font-size="14.00">AlertComponent</text>
</g>
<!-- AlertComponent&#45;&gt;AppModule -->
<g id="edge2" class="edge">
<title>AlertComponent&#45;&gt;AppModule</title>
<path fill="none" stroke="black" d="M2743,-84.82C2743,-102.17 2743,-125.8 2743,-125.8 2743,-125.8 2221.67,-125.8 2221.67,-125.8"/>
<polygon fill="black" stroke="black" points="2221.67,-122.3 2211.67,-125.8 2221.67,-129.3 2221.67,-122.3"/>
</g>
<!-- AppComponent -->
<g id="node3" class="node">
<title>AppComponent</title>
<polygon fill="#ffffb3" stroke="black" points="2669.94,-84.8 2564.06,-84.8 2564.06,-48.8 2669.94,-48.8 2669.94,-84.8"/>
<text text-anchor="middle" x="2617" y="-62.6" font-family="Times,serif" font-size="14.00">AppComponent</text>
</g>
<!-- AppComponent&#45;&gt;AppModule -->
<g id="edge3" class="edge">
<title>AppComponent&#45;&gt;AppModule</title>
<path fill="none" stroke="black" d="M2617,-84.83C2617,-101.2 2617,-122.8 2617,-122.8 2617,-122.8 2222.05,-122.8 2222.05,-122.8"/>
<polygon fill="black" stroke="black" points="2222.05,-119.3 2212.05,-122.8 2222.05,-126.3 2222.05,-119.3"/>
</g>
<!-- DebtsComponent -->
<g id="node4" class="node">
<title>DebtsComponent</title>
<polygon fill="#ffffb3" stroke="black" points="2545.99,-84.8 2432.01,-84.8 2432.01,-48.8 2545.99,-48.8 2545.99,-84.8"/>
<text text-anchor="middle" x="2489" y="-62.6" font-family="Times,serif" font-size="14.00">DebtsComponent</text>
</g>
<!-- DebtsComponent&#45;&gt;AppModule -->
<g id="edge4" class="edge">
<title>DebtsComponent&#45;&gt;AppModule</title>
<path fill="none" stroke="black" d="M2489,-85.04C2489,-100.37 2489,-119.8 2489,-119.8 2489,-119.8 2221.7,-119.8 2221.7,-119.8"/>
<polygon fill="black" stroke="black" points="2221.7,-116.3 2211.7,-119.8 2221.7,-123.3 2221.7,-116.3"/>
</g>
<!-- DebtsDetailComponent -->
<g id="node5" class="node">
<title>DebtsDetailComponent</title>
<polygon fill="#ffffb3" stroke="black" points="2414.2,-84.8 2265.8,-84.8 2265.8,-48.8 2414.2,-48.8 2414.2,-84.8"/>
<text text-anchor="middle" x="2340" y="-62.6" font-family="Times,serif" font-size="14.00">DebtsDetailComponent</text>
</g>
<!-- DebtsDetailComponent&#45;&gt;AppModule -->
<g id="edge5" class="edge">
<title>DebtsDetailComponent&#45;&gt;AppModule</title>
<path fill="none" stroke="black" d="M2340,-84.85C2340,-99.17 2340,-116.8 2340,-116.8 2340,-116.8 2222.02,-116.8 2222.02,-116.8"/>
<polygon fill="black" stroke="black" points="2222.02,-113.3 2212.02,-116.8 2222.02,-120.3 2222.02,-113.3"/>
</g>
<!-- ExpensesListComponent -->
<g id="node6" class="node">
<title>ExpensesListComponent</title>
<polygon fill="#ffffb3" stroke="black" points="2247.99,-84.8 2092.01,-84.8 2092.01,-48.8 2247.99,-48.8 2247.99,-84.8"/>
<text text-anchor="middle" x="2170" y="-62.6" font-family="Times,serif" font-size="14.00">ExpensesListComponent</text>
</g>
<!-- ExpensesListComponent&#45;&gt;AppModule -->
<g id="edge6" class="edge">
<title>ExpensesListComponent&#45;&gt;AppModule</title>
<path fill="none" stroke="black" d="M2170,-84.91C2170,-84.91 2170,-103.79 2170,-103.79"/>
<polygon fill="black" stroke="black" points="2166.5,-103.79 2170,-113.79 2173.5,-103.79 2166.5,-103.79"/>
</g>
<!-- MainComponent -->
<g id="node7" class="node">
<title>MainComponent</title>
<polygon fill="#ffffb3" stroke="black" points="2074.38,-84.8 1963.62,-84.8 1963.62,-48.8 2074.38,-48.8 2074.38,-84.8"/>
<text text-anchor="middle" x="2019" y="-62.6" font-family="Times,serif" font-size="14.00">MainComponent</text>
</g>
<!-- MainComponent&#45;&gt;AppModule -->
<g id="edge7" class="edge">
<title>MainComponent&#45;&gt;AppModule</title>
<path fill="none" stroke="black" d="M2019,-84.85C2019,-99.17 2019,-116.8 2019,-116.8 2019,-116.8 2117.94,-116.8 2117.94,-116.8"/>
<polygon fill="black" stroke="black" points="2117.94,-120.3 2127.94,-116.8 2117.94,-113.3 2117.94,-120.3"/>
</g>
<!-- SettingsBackupComponent -->
<g id="node8" class="node">
<title>SettingsBackupComponent</title>
<polygon fill="#ffffb3" stroke="black" points="1945.71,-84.8 1776.29,-84.8 1776.29,-48.8 1945.71,-48.8 1945.71,-84.8"/>
<text text-anchor="middle" x="1861" y="-62.6" font-family="Times,serif" font-size="14.00">SettingsBackupComponent</text>
</g>
<!-- SettingsBackupComponent&#45;&gt;AppModule -->
<g id="edge8" class="edge">
<title>SettingsBackupComponent&#45;&gt;AppModule</title>
<path fill="none" stroke="black" d="M1861,-85.04C1861,-100.37 1861,-119.8 1861,-119.8 1861,-119.8 2118.33,-119.8 2118.33,-119.8"/>
<polygon fill="black" stroke="black" points="2118.33,-123.3 2128.33,-119.8 2118.33,-116.3 2118.33,-123.3"/>
</g>
<!-- SettingsComponent -->
<g id="node9" class="node">
<title>SettingsComponent</title>
<polygon fill="#ffffb3" stroke="black" points="1758.45,-84.8 1631.55,-84.8 1631.55,-48.8 1758.45,-48.8 1758.45,-84.8"/>
<text text-anchor="middle" x="1695" y="-62.6" font-family="Times,serif" font-size="14.00">SettingsComponent</text>
</g>
<!-- SettingsComponent&#45;&gt;AppModule -->
<g id="edge9" class="edge">
<title>SettingsComponent&#45;&gt;AppModule</title>
<path fill="none" stroke="black" d="M1695,-84.83C1695,-101.2 1695,-122.8 1695,-122.8 1695,-122.8 2118.26,-122.8 2118.26,-122.8"/>
<polygon fill="black" stroke="black" points="2118.26,-126.3 2128.26,-122.8 2118.26,-119.3 2118.26,-126.3"/>
</g>
<!-- SettingsCurrencyComponent -->
<g id="node10" class="node">
<title>SettingsCurrencyComponent</title>
<polygon fill="#ffffb3" stroke="black" points="1614.04,-84.8 1435.96,-84.8 1435.96,-48.8 1614.04,-48.8 1614.04,-84.8"/>
<text text-anchor="middle" x="1525" y="-62.6" font-family="Times,serif" font-size="14.00">SettingsCurrencyComponent</text>
</g>
<!-- SettingsCurrencyComponent&#45;&gt;AppModule -->
<g id="edge10" class="edge">
<title>SettingsCurrencyComponent&#45;&gt;AppModule</title>
<path fill="none" stroke="black" d="M1525,-84.82C1525,-102.17 1525,-125.8 1525,-125.8 1525,-125.8 2118.18,-125.8 2118.18,-125.8"/>
<polygon fill="black" stroke="black" points="2118.18,-129.3 2128.18,-125.8 2118.18,-122.3 2118.18,-129.3"/>
</g>
<!-- SettingsGraphComponent -->
<g id="node11" class="node">
<title>SettingsGraphComponent</title>
<polygon fill="#ffffb3" stroke="black" points="1417.94,-84.8 1256.06,-84.8 1256.06,-48.8 1417.94,-48.8 1417.94,-84.8"/>
<text text-anchor="middle" x="1337" y="-62.6" font-family="Times,serif" font-size="14.00">SettingsGraphComponent</text>
</g>
<!-- SettingsGraphComponent&#45;&gt;AppModule -->
<g id="edge11" class="edge">
<title>SettingsGraphComponent&#45;&gt;AppModule</title>
<path fill="none" stroke="black" d="M1337,-85.1C1337,-103.07 1337,-127.8 1337,-127.8 1337,-127.8 2118.12,-127.8 2118.12,-127.8"/>
<polygon fill="black" stroke="black" points="2118.12,-131.3 2128.12,-127.8 2118.12,-124.3 2118.12,-131.3"/>
</g>
<!-- SettingsTravelComponent -->
<g id="node12" class="node">
<title>SettingsTravelComponent</title>
<polygon fill="#ffffb3" stroke="black" points="1238.48,-84.8 1075.52,-84.8 1075.52,-48.8 1238.48,-48.8 1238.48,-84.8"/>
<text text-anchor="middle" x="1157" y="-62.6" font-family="Times,serif" font-size="14.00">SettingsTravelComponent</text>
</g>
<!-- SettingsTravelComponent&#45;&gt;AppModule -->
<g id="edge12" class="edge">
<title>SettingsTravelComponent&#45;&gt;AppModule</title>
<path fill="none" stroke="black" d="M1157,-84.97C1157,-103.89 1157,-130.8 1157,-130.8 1157,-130.8 2118.08,-130.8 2118.08,-130.8"/>
<polygon fill="black" stroke="black" points="2118.08,-134.3 2128.08,-130.8 2118.08,-127.3 2118.08,-134.3"/>
</g>
<!-- SettingsUploadComponent -->
<g id="node13" class="node">
<title>SettingsUploadComponent</title>
<polygon fill="#ffffb3" stroke="black" points="1057.66,-84.8 890.34,-84.8 890.34,-48.8 1057.66,-48.8 1057.66,-84.8"/>
<text text-anchor="middle" x="974" y="-62.6" font-family="Times,serif" font-size="14.00">SettingsUploadComponent</text>
</g>
<!-- SettingsUploadComponent&#45;&gt;AppModule -->
<g id="edge13" class="edge">
<title>SettingsUploadComponent&#45;&gt;AppModule</title>
<path fill="none" stroke="black" d="M974,-85.11C974,-104.95 974,-133.8 974,-133.8 974,-133.8 2118.14,-133.8 2118.14,-133.8"/>
<polygon fill="black" stroke="black" points="2118.14,-137.3 2128.14,-133.8 2118.13,-130.3 2118.14,-137.3"/>
</g>
<!-- SettingsWeatherComponent -->
<g id="node14" class="node">
<title>SettingsWeatherComponent</title>
<polygon fill="#ffffb3" stroke="black" points="871.86,-84.8 698.14,-84.8 698.14,-48.8 871.86,-48.8 871.86,-84.8"/>
<text text-anchor="middle" x="785" y="-62.6" font-family="Times,serif" font-size="14.00">SettingsWeatherComponent</text>
</g>
<!-- SettingsWeatherComponent&#45;&gt;AppModule -->
<g id="edge14" class="edge">
<title>SettingsWeatherComponent&#45;&gt;AppModule</title>
<path fill="none" stroke="black" d="M785,-84.83C785,-105.57 785,-136.8 785,-136.8 785,-136.8 2118.17,-136.8 2118.17,-136.8"/>
<polygon fill="black" stroke="black" points="2118.17,-140.3 2128.17,-136.8 2118.17,-133.3 2118.17,-140.3"/>
</g>
<!-- StatisticsComponent -->
<g id="node15" class="node">
<title>StatisticsComponent</title>
<polygon fill="#ffffb3" stroke="black" points="679.89,-84.8 548.11,-84.8 548.11,-48.8 679.89,-48.8 679.89,-84.8"/>
<text text-anchor="middle" x="614" y="-62.6" font-family="Times,serif" font-size="14.00">StatisticsComponent</text>
</g>
<!-- StatisticsComponent&#45;&gt;AppModule -->
<g id="edge15" class="edge">
<title>StatisticsComponent&#45;&gt;AppModule</title>
<path fill="none" stroke="black" d="M614,-84.97C614,-106.3 614,-138.8 614,-138.8 614,-138.8 2117.98,-138.8 2117.98,-138.8"/>
<polygon fill="black" stroke="black" points="2117.98,-142.3 2127.98,-138.8 2117.98,-135.3 2117.98,-142.3"/>
</g>
<!-- SummarygraphComponent -->
<g id="node16" class="node">
<title>SummarygraphComponent</title>
<polygon fill="#ffffb3" stroke="black" points="529.65,-84.8 362.35,-84.8 362.35,-48.8 529.65,-48.8 529.65,-84.8"/>
<text text-anchor="middle" x="446" y="-62.6" font-family="Times,serif" font-size="14.00">SummarygraphComponent</text>
</g>
<!-- SummarygraphComponent&#45;&gt;AppModule -->
<g id="edge16" class="edge">
<title>SummarygraphComponent&#45;&gt;AppModule</title>
<path fill="none" stroke="black" d="M446,-84.96C446,-107.15 446,-141.8 446,-141.8 446,-141.8 2118.24,-141.8 2118.24,-141.8"/>
<polygon fill="black" stroke="black" points="2118.24,-145.3 2128.24,-141.8 2118.24,-138.3 2118.24,-145.3"/>
</g>
<!-- WeatherComponent -->
<g id="node17" class="node">
<title>WeatherComponent</title>
<polygon fill="#ffffb3" stroke="black" points="344.24,-84.8 215.76,-84.8 215.76,-48.8 344.24,-48.8 344.24,-84.8"/>
<text text-anchor="middle" x="280" y="-62.6" font-family="Times,serif" font-size="14.00">WeatherComponent</text>
</g>
<!-- WeatherComponent&#45;&gt;AppModule -->
<g id="edge17" class="edge">
<title>WeatherComponent&#45;&gt;AppModule</title>
<path fill="none" stroke="black" d="M280,-84.89C280,-107.93 280,-144.8 280,-144.8 280,-144.8 2118.32,-144.8 2118.32,-144.8"/>
<polygon fill="black" stroke="black" points="2118.32,-148.3 2128.32,-144.8 2118.32,-141.3 2118.32,-148.3"/>
</g>
<!-- WeatherforecastComponent -->
<g id="node18" class="node">
<title>WeatherforecastComponent</title>
<polygon fill="#ffffb3" stroke="black" points="197.54,-84.8 24.46,-84.8 24.46,-48.8 197.54,-48.8 197.54,-84.8"/>
<text text-anchor="middle" x="111" y="-62.6" font-family="Times,serif" font-size="14.00">WeatherforecastComponent</text>
</g>
<!-- WeatherforecastComponent&#45;&gt;AppModule -->
<g id="edge18" class="edge">
<title>WeatherforecastComponent&#45;&gt;AppModule</title>
<path fill="none" stroke="black" d="M111,-85.18C111,-109.08 111,-147.8 111,-147.8 111,-147.8 2117.94,-147.8 2117.94,-147.8"/>
<polygon fill="black" stroke="black" points="2117.94,-151.3 2127.94,-147.8 2117.94,-144.3 2117.94,-151.3"/>
</g>
<!-- AppComponent  -->
<g id="node21" class="node">
<title>AppComponent </title>
<polygon fill="#80b1d3" stroke="black" points="2224.44,-214.8 2115.56,-214.8 2115.56,-178.8 2224.44,-178.8 2224.44,-214.8"/>
<text text-anchor="middle" x="2170" y="-192.6" font-family="Times,serif" font-size="14.00">AppComponent </text>
</g>
<!-- AppModule&#45;&gt;AppComponent  -->
<g id="edge20" class="edge">
<title>AppModule&#45;&gt;AppComponent </title>
<path fill="none" stroke="black" stroke-dasharray="1,5" d="M2170,-149.91C2170,-149.91 2170,-168.79 2170,-168.79"/>
<polygon fill="black" stroke="black" points="2166.5,-168.79 2170,-178.79 2173.5,-168.79 2166.5,-168.79"/>
</g>
<!-- AppRoutingModule -->
<g id="node20" class="node">
<title>AppRoutingModule</title>
<polygon fill="#8dd3c7" stroke="black" points="3120.28,-84.8 3117.28,-88.8 3096.28,-88.8 3093.28,-84.8 2991.72,-84.8 2991.72,-48.8 3120.28,-48.8 3120.28,-84.8"/>
<text text-anchor="middle" x="3056" y="-62.6" font-family="Times,serif" font-size="14.00">AppRoutingModule</text>
</g>
<!-- AppRoutingModule&#45;&gt;AppModule -->
<g id="edge19" class="edge">
<title>AppRoutingModule&#45;&gt;AppModule</title>
<path fill="none" stroke="black" d="M3056,-84.97C3056,-103.89 3056,-130.8 3056,-130.8 3056,-130.8 2221.84,-130.8 2221.84,-130.8"/>
<polygon fill="black" stroke="black" points="2221.84,-127.3 2211.84,-130.8 2221.84,-134.3 2221.84,-127.3"/>
</g>
<!-- CurrencyService -->
<g id="node22" class="node">
<title>CurrencyService</title>
<ellipse fill="#fdb462" stroke="black" cx="4037" cy="-66.8" rx="75.85" ry="18"/>
<text text-anchor="middle" x="4037" y="-62.6" font-family="Times,serif" font-size="14.00">CurrencyService</text>
</g>
<!-- CurrencyService&#45;&gt;AppModule -->
<g id="edge21" class="edge">
<title>CurrencyService&#45;&gt;AppModule</title>
<path fill="none" stroke="black" d="M4037,-85.18C4037,-109.08 4037,-147.8 4037,-147.8 4037,-147.8 2222.06,-147.8 2222.06,-147.8"/>
<polygon fill="black" stroke="black" points="2222.06,-144.3 2212.06,-147.8 2222.06,-151.3 2222.06,-144.3"/>
</g>
<!-- DebtsService -->
<g id="node23" class="node">
<title>DebtsService</title>
<ellipse fill="#fdb462" stroke="black" cx="3881" cy="-66.8" rx="62.55" ry="18"/>
<text text-anchor="middle" x="3881" y="-62.6" font-family="Times,serif" font-size="14.00">DebtsService</text>
</g>
<!-- DebtsService&#45;&gt;AppModule -->
<g id="edge22" class="edge">
<title>DebtsService&#45;&gt;AppModule</title>
<path fill="none" stroke="black" d="M3881,-84.89C3881,-107.93 3881,-144.8 3881,-144.8 3881,-144.8 2221.87,-144.8 2221.87,-144.8"/>
<polygon fill="black" stroke="black" points="2221.87,-141.3 2211.87,-144.8 2221.87,-148.3 2221.87,-141.3"/>
</g>
<!-- ExpensesService -->
<g id="node24" class="node">
<title>ExpensesService</title>
<ellipse fill="#fdb462" stroke="black" cx="3724" cy="-66.8" rx="76.43" ry="18"/>
<text text-anchor="middle" x="3724" y="-62.6" font-family="Times,serif" font-size="14.00">ExpensesService</text>
</g>
<!-- ExpensesService&#45;&gt;AppModule -->
<g id="edge23" class="edge">
<title>ExpensesService&#45;&gt;AppModule</title>
<path fill="none" stroke="black" d="M3724,-84.96C3724,-107.15 3724,-141.8 3724,-141.8 3724,-141.8 2221.97,-141.8 2221.97,-141.8"/>
<polygon fill="black" stroke="black" points="2221.97,-138.3 2211.97,-141.8 2221.97,-145.3 2221.97,-138.3"/>
</g>
<!-- LocalstorageService -->
<g id="node25" class="node">
<title>LocalstorageService</title>
<ellipse fill="#fdb462" stroke="black" cx="3540" cy="-66.8" rx="89.72" ry="18"/>
<text text-anchor="middle" x="3540" y="-62.6" font-family="Times,serif" font-size="14.00">LocalstorageService</text>
</g>
<!-- LocalstorageService&#45;&gt;AppModule -->
<g id="edge24" class="edge">
<title>LocalstorageService&#45;&gt;AppModule</title>
<path fill="none" stroke="black" d="M3540,-84.97C3540,-106.3 3540,-138.8 3540,-138.8 3540,-138.8 2221.75,-138.8 2221.75,-138.8"/>
<polygon fill="black" stroke="black" points="2221.75,-135.3 2211.75,-138.8 2221.75,-142.3 2221.75,-135.3"/>
</g>
<!-- UsersService -->
<g id="node26" class="node">
<title>UsersService</title>
<ellipse fill="#fdb462" stroke="black" cx="3370" cy="-66.8" rx="61.97" ry="18"/>
<text text-anchor="middle" x="3370" y="-62.6" font-family="Times,serif" font-size="14.00">UsersService</text>
</g>
<!-- UsersService&#45;&gt;AppModule -->
<g id="edge25" class="edge">
<title>UsersService&#45;&gt;AppModule</title>
<path fill="none" stroke="black" d="M3370,-84.83C3370,-105.57 3370,-136.8 3370,-136.8 3370,-136.8 2222.01,-136.8 2222.01,-136.8"/>
<polygon fill="black" stroke="black" points="2222.01,-133.3 2212.01,-136.8 2222,-140.3 2222.01,-133.3"/>
</g>
<!-- WeatherService -->
<g id="node27" class="node">
<title>WeatherService</title>
<ellipse fill="#fdb462" stroke="black" cx="3217" cy="-66.8" rx="72.89" ry="18"/>
<text text-anchor="middle" x="3217" y="-62.6" font-family="Times,serif" font-size="14.00">WeatherService</text>
</g>
<!-- WeatherService&#45;&gt;AppModule -->
<g id="edge26" class="edge">
<title>WeatherService&#45;&gt;AppModule</title>
<path fill="none" stroke="black" d="M3217,-85.11C3217,-104.95 3217,-133.8 3217,-133.8 3217,-133.8 2221.69,-133.8 2221.69,-133.8"/>
<polygon fill="black" stroke="black" points="2221.69,-130.3 2211.69,-133.8 2221.69,-137.3 2221.69,-130.3"/>
</g>
</g>
</svg>
