<?xml version="1.0" standalone="no"?>
<!DOCTYPE svg PUBLIC "-//W3C//DTD SVG 20010904//EN"
 "http://www.w3.org/TR/2001/REC-SVG-20010904/DTD/svg10.dtd">
<svg version="1.0" xmlns="http://www.w3.org/2000/svg"
 width="736.000000pt" height="736.000000pt" viewBox="0 0 736.000000 736.000000"
 preserveAspectRatio="xMidYMid meet">
<metadata>
Created by potrace 1.14, written by Peter Selinger 2001-2017
</metadata>
<g transform="translate(0.000000,736.000000) scale(0.100000,-0.100000)"
fill="#000000" stroke="none">
<path d="M3849 6990 c-40 -27 -80 -49 -86 -50 -7 0 -13 -4 -13 -10 0 -5 -7
-10 -15 -10 -8 0 -15 -4 -15 -10 0 -5 -5 -10 -10 -10 -6 0 -41 -20 -78 -44
-142 -93 -504 -316 -512 -316 -4 0 -10 -4 -12 -8 -1 -5 -54 -40 -116 -78 -125
-77 -112 -69 -400 -248 -114 -71 -243 -153 -287 -181 -44 -28 -129 -82 -190
-119 -104 -63 -536 -333 -600 -375 -51 -33 -119 -75 -146 -91 -15 -8 -155 -96
-313 -195 -157 -99 -301 -189 -319 -200 -18 -11 -71 -44 -118 -73 -46 -29 -93
-59 -103 -65 -88 -54 -216 -138 -216 -143 0 -2 8 -17 19 -32 34 -50 96 -147
96 -152 1 -3 19 -32 40 -66 22 -33 56 -86 75 -117 31 -51 60 -73 60 -47 0 5
11 12 25 16 14 3 25 10 25 15 0 5 4 9 9 9 5 0 84 47 175 105 91 58 170 105
175 105 5 0 11 3 13 8 3 8 84 62 93 62 4 0 21 11 39 25 18 14 37 25 43 25 5 0
18 9 28 20 10 11 22 20 27 20 5 0 28 13 51 28 23 16 49 32 57 35 8 4 82 50
164 102 81 52 152 95 157 95 5 0 9 4 9 9 0 5 8 11 18 14 9 4 66 38 125 77 60
38 112 70 117 70 5 0 15 6 23 14 12 12 52 38 202 129 11 7 45 29 77 50 31 20
62 37 67 37 6 0 11 5 11 10 0 6 4 10 9 10 5 0 37 18 70 40 33 22 65 40 71 40
5 0 10 5 10 10 0 6 5 10 11 10 5 0 37 18 69 40 32 22 64 40 69 40 6 0 11 5 11
10 0 6 7 10 15 10 8 0 15 5 15 10 0 6 5 10 11 10 6 0 30 14 54 30 24 17 48 30
54 30 6 0 11 5 11 10 0 6 7 10 15 10 8 0 15 5 15 10 0 6 5 10 11 10 5 0 36 17
67 38 31 21 64 42 72 45 8 4 64 38 123 77 60 38 112 70 117 70 5 0 15 7 23 15
8 8 43 31 78 52 34 21 77 47 94 58 17 11 46 29 64 40 57 35 113 70 203 128 48
32 91 57 94 57 3 0 20 10 37 23 18 12 41 27 52 33 11 6 30 16 41 24 20 12 32
7 138 -61 64 -41 124 -78 133 -84 49 -30 230 -146 240 -155 7 -5 15 -10 18
-10 3 0 51 -30 108 -67 56 -38 107 -70 113 -73 5 -3 88 -54 182 -115 95 -60
181 -114 190 -120 9 -5 57 -36 105 -67 48 -32 92 -58 97 -58 6 0 10 -4 10 -10
0 -5 4 -10 9 -10 8 0 182 -109 361 -225 103 -67 433 -275 437 -275 2 0 9 -5
16 -10 16 -14 49 -35 302 -195 121 -76 223 -142 226 -147 3 -6 10 -10 15 -10
5 -1 27 -13 49 -27 22 -14 48 -30 58 -36 14 -8 264 -167 334 -212 23 -15 21
-18 227 310 74 119 75 105 -2 154 -37 23 -73 47 -79 53 -7 6 -13 8 -13 5 0 -3
-6 -1 -12 5 -7 6 -92 61 -188 122 -96 60 -205 130 -242 154 -37 24 -72 44 -77
44 -5 0 -11 4 -13 8 -1 5 -52 39 -113 77 -60 37 -136 86 -167 107 -31 21 -60
38 -63 38 -3 0 -11 5 -18 10 -7 6 -39 28 -73 49 l-61 38 -1 654 c-1 360 -1
664 -2 677 l0 22 -242 -2 -243 -3 -1 -513 c0 -282 -3 -515 -6 -518 -3 -3 -13
2 -21 11 -9 8 -18 15 -20 15 -4 0 -225 139 -357 224 -144 94 -181 116 -190
116 -5 0 -10 5 -10 10 0 6 -7 10 -15 10 -8 0 -15 4 -15 8 0 5 -17 17 -37 29
-59 31 -208 127 -211 136 -2 4 -7 7 -12 7 -6 0 -314 192 -400 250 -83 55 -106
70 -113 70 -4 0 -13 5 -20 11 -17 14 -142 95 -197 127 -25 14 -47 29 -50 33
-3 3 -19 13 -36 22 -30 15 -31 15 -105 -33z"/>
<path d="M3950 3793 l0 -243 1303 -2 1304 -3 -34 -90 c-19 -49 -36 -97 -38
-105 -3 -14 -22 -61 -44 -115 -5 -11 -16 -40 -24 -65 -9 -25 -25 -70 -36 -100
l-21 -56 -1380 1 c-760 0 -1386 -2 -1393 -5 -10 -4 -13 -60 -13 -240 0 -129 3
-237 7 -240 4 -3 588 -5 1298 -5 808 0 1291 -3 1291 -9 0 -10 -104 -296 -120
-331 -6 -11 -25 -63 -44 -115 l-34 -95 -1473 -3 c-883 -1 -1475 -6 -1479 -11
-7 -12 -5 -469 2 -476 3 -4 14 -6 24 -6 94 2 263 2 270 0 5 -1 14 -1 19 0 14
3 288 3 300 1 6 -1 15 -2 20 -1 6 1 100 2 210 1 110 -1 216 0 235 1 19 0 41 1
48 0 29 -2 542 -3 592 -1 19 1 41 2 48 1 29 -2 542 -3 592 -1 19 1 41 2 48 1
17 -1 34 -2 157 -1 61 1 131 1 156 0 l47 0 -25 -67 c-13 -36 -27 -71 -31 -77
-3 -6 -7 -15 -8 -21 -1 -5 -19 -53 -39 -105 -20 -52 -38 -102 -40 -110 -10
-35 -82 -220 -89 -227 -4 -4 -703 -7 -1554 -8 l-1547 0 -92 225 c-51 124 -116
281 -144 350 -28 69 -60 144 -70 167 -10 24 -19 45 -19 47 0 3 -5 17 -12 33
-6 15 -12 30 -13 33 0 3 -11 27 -23 54 -12 27 -22 54 -22 60 0 7 -4 16 -8 22
-11 12 -47 107 -44 117 1 4 -2 7 -8 7 -5 0 -10 7 -10 15 0 8 -4 23 -10 33 -15
26 -104 245 -106 261 -2 7 -7 18 -13 24 -6 6 -11 17 -11 24 0 7 -9 35 -21 61
-32 73 -36 81 -75 177 -20 50 -42 104 -49 120 -7 17 -27 66 -45 110 -17 44
-37 94 -45 110 -7 17 -37 89 -65 160 -28 72 -58 146 -67 165 -8 19 -21 49 -28
65 -7 17 -25 62 -40 100 -15 39 -33 84 -40 100 -7 17 -33 80 -58 140 -50 123
-62 152 -88 212 -11 24 -19 46 -19 51 0 5 -10 29 -23 53 l-22 46 -583 0 -582
-1 0 -263 c0 -203 3 -263 13 -264 6 0 182 -2 390 -2 l378 -2 106 -260 c58
-143 111 -273 118 -290 20 -46 145 -354 165 -405 9 -25 32 -81 51 -125 18 -44
34 -82 35 -85 0 -3 5 -16 11 -30 16 -37 190 -465 283 -695 44 -110 84 -209 89
-220 5 -11 19 -45 31 -75 13 -30 29 -68 35 -85 12 -27 168 -413 308 -758 l51
-127 1949 2 1949 3 28 80 c15 44 62 170 104 280 43 110 93 243 112 295 52 139
84 222 94 245 5 11 18 47 30 80 11 33 25 69 30 80 5 11 34 88 65 170 31 83 67
178 80 212 12 34 20 64 17 67 -3 3 0 6 6 6 7 0 12 7 12 15 0 8 6 29 14 47 8
18 28 70 45 116 48 128 93 244 107 277 7 17 18 48 24 70 7 22 15 45 19 50 3 6
6 12 7 15 0 3 4 12 7 20 4 8 20 53 37 100 17 47 35 94 40 105 5 11 23 58 40
105 17 47 35 94 40 105 5 11 39 101 76 200 36 99 71 188 76 198 5 10 11 26 13
35 2 9 36 100 75 202 39 102 73 193 75 202 2 9 8 25 14 36 6 11 18 42 27 68 9
27 21 60 27 74 5 14 11 30 13 35 1 6 12 34 23 63 l21 52 -148 2 c-81 1 -848 2
-1704 3 l-1558 2 0 -244z"/>
</g>
</svg>
